<svg id="Layer_1" data-name="Layer 1" xmlns="http://www.w3.org/2000/svg" viewBox="0 0 473.68 473.67"><defs><style>.cls-1{fill:#fdb106;}.cls-2{fill:#fff;}</style></defs><title>refresh</title><path class="cls-1" d="M473.68,236.84C473.68,106,367.64,0,236.84,0S0,106,0,236.84,106,473.67,236.84,473.67,473.68,367.64,473.68,236.84Z" transform="translate(0 0)"/><path class="cls-2" d="M414.45,297.55l-51.74-81.16a7.1,7.1,0,0,0-12.12,0l-52.13,80.9A6,6,0,0,0,299,305a6.32,6.32,0,0,0,5.51,2.84l27.45.07c-42.22,67.08-144.7,73.23-192.8,4.34-15.41-22.06-51.86-1-36.29,21.3,34,48.63,89.75,76.47,149.36,69.65,57.36-6.57,103.66-43.66,126.64-95.18l29.51.08C413.54,308.13,417.37,302.12,414.45,297.55Z" transform="translate(0 0)"/><path class="cls-2" d="M370.46,138.9c-34-48.63-89.75-76.48-149.37-69.65C163.16,75.88,116.54,113.68,93.8,166l-36.71-.09c-5.19,0-9,6-6.1,10.56l51.73,81.16a7.1,7.1,0,0,0,12.12,0L167,176.69a6,6,0,0,0-.51-7.68,6.32,6.32,0,0,0-5.51-2.84l-20.54,0C182,97.58,285.69,90.8,334.17,160.21,349.57,182.26,386,161.19,370.46,138.9Z" transform="translate(0 0)"/></svg>