<svg id="Grupa_3_kopia_3" data-name="Grupa 3 kopia 3" xmlns="http://www.w3.org/2000/svg" xmlns:xlink="http://www.w3.org/1999/xlink" width="285" height="207" viewBox="0 0 285 207">
  <metadata><?xpacket begin="﻿" id="W5M0MpCehiHzreSzNTczkc9d"?>
<x:xmpmeta xmlns:x="adobe:ns:meta/" x:xmptk="Adobe XMP Core 5.6-c142 79.160924, 2017/07/13-01:06:39        ">
   <rdf:RDF xmlns:rdf="http://www.w3.org/1999/02/22-rdf-syntax-ns#">
      <rdf:Description rdf:about=""/>
   </rdf:RDF>
</x:xmpmeta>
                                                                                                    
                                                                                                    
                                                                                                    
                                                                                                    
                                                                                                    
                                                                                                    
                                                                                                    
                                                                                                    
                                                                                                    
                                                                                                    
                                                                                                    
                                                                                                    
                                                                                                    
                                                                                                    
                                                                                                    
                                                                                                    
                                                                                                    
                                                                                                    
                                                                                                    
                                                                                                    
                           
<?xpacket end="w"?></metadata>
<defs>
    <style>
      .cls-1, .cls-2, .cls-3 {
        fill-rule: evenodd;
      }

      .cls-1 {
        fill: url(#linear-gradient);
      }

      .cls-2 {
        fill: url(#linear-gradient-2);
      }

      .cls-3 {
        fill: #fdb106;
      }
    </style>
    <linearGradient id="linear-gradient" x1="41.687" y1="180.438" x2="221.125" y2="1" gradientUnits="userSpaceOnUse">
      <stop offset="0" stop-color="#243c79"/>
      <stop offset="1" stop-color="#2f9cd6"/>
    </linearGradient>
    <linearGradient id="linear-gradient-2" x1="21.25" y1="167.734" x2="284.125" y2="167.734" gradientUnits="userSpaceOnUse">
      <stop offset="0" stop-color="#d8761e"/>
      <stop offset="1" stop-color="#fdb106"/>
    </linearGradient>
  </defs>
  <path id="Forma_1" data-name="Forma 1" class="cls-1" d="M15.612,80.153A77.284,77.284,0,0,1,.9,67.424v113l65.176-65.462Q46.517,101.249,15.612,80.153ZM238.6,1.01H24.205q-11.219,0-17.259,7.6T0.9,27.633q0,9.214,8.01,19.97A72.376,72.376,0,0,0,25.954,64.5Q30.9,68.011,55.812,85.345c8.964,6.238,16.759,11.677,23.458,16.368,5.711,4,10.634,7.456,14.7,10.329,0.467,0.33,1.2.859,2.175,1.556,1.051,0.759,2.379,1.718,4.017,2.907q4.732,3.44,7.865,5.561t7.576,4.754a44.015,44.015,0,0,0,8.374,3.95,23.082,23.082,0,0,0,7.283,1.315h0.289a23.051,23.051,0,0,0,7.281-1.315,44.035,44.035,0,0,0,8.377-3.95q4.445-2.634,7.573-4.754t7.868-5.561c1.634-1.189,2.962-2.148,4.013-2.9,0.974-.7,1.707-1.226,2.178-1.559,3.166-2.213,8.1-5.661,14.738-10.287Q201.691,89.114,237,64.5a69.472,69.472,0,0,0,17.768-17.992A38.809,38.809,0,0,0,261.9,24.417a22.5,22.5,0,0,0-6.916-16.534A22.484,22.484,0,0,0,238.6,1.01Z"/>
  <path id="Elipsa_10" data-name="Elipsa 10" class="cls-2" d="M248,154.066l10.366-.015a25.7,25.7,0,0,1,25.754,25.642l0.009,0.528a25.657,25.657,0,0,1-25.63,25.734l-10.332.011Zm-77.783-11.614a7.722,7.722,0,0,1,5.419-13.2l71.176-.135a7.719,7.719,0,0,1,7.738,7.9,7.849,7.849,0,0,1-7.871,7.541l-6.938.019,0.027,9.511,0.033,0,0.2,51.9-165.856.358-0.167-51.9,150.375-.344-0.027-9.511-48.637.1A7.668,7.668,0,0,1,170.219,142.452ZM65.1,155.98l0.166,48.9a38.8,38.8,0,0,1-3.713-1.761L23.331,183.867a3.762,3.762,0,0,1-.015-6.716l38.131-19.427C61.432,157.743,63.068,156.841,65.1,155.98Z"/>
  <path id="Elipsa_11" data-name="Elipsa 11" class="cls-3" d="M207.5,104.763a7,7,0,1,1-3.648,9.2A7,7,0,0,1,207.5,104.763Zm33.231-17.634a15.5,15.5,0,1,1-8.077,20.378A15.5,15.5,0,0,1,240.735,87.129Z"/>
</svg>
