<?xml version="1.0" standalone="no"?>
<!DOCTYPE svg PUBLIC "-//W3C//DTD SVG 1.1//EN" "http://www.w3.org/Graphics/SVG/1.1/DTD/svg11.dtd" >
<svg xmlns="http://www.w3.org/2000/svg" xmlns:xlink="http://www.w3.org/1999/xlink" version="1.1">
<metadata></metadata>
<defs>
<font id="didact_gothicregular" horiz-adv-x="1148" >
<font-face units-per-em="2048" ascent="1638" descent="-410" />
<missing-glyph horiz-adv-x="456" />
<glyph unicode="&#xfb01;" horiz-adv-x="1036" d="M180 0v831h-123v127h123v261q0 133 85 218t218 85h58v-127h-58q-72 0 -118 -49.5t-46 -126.5v-261h512v-958h-139v831h-373v-831h-139zM762 1145q-47 0 -79 32.5t-32 79.5q0 45 32 77t79 32q45 0 77.5 -32t32.5 -79q0 -44 -33 -77t-77 -33z" />
<glyph unicode="&#xfb02;" horiz-adv-x="978" d="M180 0v831h-123v127h123v261q0 134 96 218.5t248 84.5q124 0 318 -35v-1487h-140v1384q-96 13 -178 13q-90 0 -147.5 -50.5t-57.5 -127.5v-261h222v-127h-222v-831h-139z" />
<glyph horiz-adv-x="0" />
<glyph horiz-adv-x="682" />
<glyph horiz-adv-x="0" />
<glyph horiz-adv-x="0" />
<glyph unicode="&#xd;" horiz-adv-x="456" />
<glyph unicode=" "  horiz-adv-x="456" />
<glyph unicode="&#x09;" horiz-adv-x="456" />
<glyph unicode="&#xa0;" horiz-adv-x="456" />
<glyph unicode="!" horiz-adv-x="475" d="M168 381v1016h139v-1016h-139zM240 -16q-45 0 -78 32.5t-33 79.5q0 44 33.5 77.5t77.5 33.5q47 0 78.5 -32.5t31.5 -80.5q0 -45 -31.5 -77.5t-78.5 -32.5z" />
<glyph unicode="&#x22;" horiz-adv-x="589" d="M123 930l-21 467h140l-21 -467h-98zM369 930l-21 467h139l-20 -467h-98z" />
<glyph unicode="#" horiz-adv-x="1253" d="M1212 850h-225l-35 -291h199v-127h-215l-47 -371h-127l47 371h-346l-47 -371h-127l47 371h-213v127h229l35 291h-203v127h219l52 401h127l-52 -401h347l51 401h127l-51 -401h208v-127zM825 559l35 291h-346l-35 -291h346z" />
<glyph unicode="$" horiz-adv-x="1193" d="M725 776q92 -25 160 -57t125.5 -79.5t87.5 -115.5t30 -155q0 -152 -112 -250t-305 -107v-192h-84v192q-138 9 -266.5 80.5t-215.5 186.5l121 104q65 -99 160.5 -161.5t208.5 -74.5v508q-414 99 -414 375q0 170 111.5 261.5t312.5 94.5v191h84v-195q245 -21 406 -215 l-117 -98q-61 81 -131 125.5t-162 56.5v-475zM371 1042q0 -92 61 -145.5t209 -97.5v456q-119 -3 -194.5 -60.5t-75.5 -152.5zM719 143q127 6 193.5 66t66.5 160q0 103 -64 164.5t-196 99.5v-490z" />
<glyph unicode="%" horiz-adv-x="1511" d="M358 -18l-114 57l880 1399l111 -60zM346 702q-129 2 -212 102.5t-83 256.5q0 148 83 242t212 94t212 -94t83 -242q0 -157 -83 -258.5t-212 -100.5zM342 825q78 0 128 65t50 167q0 97 -50 158t-128 61q-75 0 -122.5 -60t-47.5 -155q0 -104 47.5 -170t122.5 -66zM1165 0 q-129 2 -212 102t-83 256q0 148 83 242t212 94t212 -94t83 -242q0 -157 -83 -258t-212 -100zM1161 123q78 0 128 64.5t50 166.5q0 97 -50 158t-128 61q-75 0 -122.5 -60t-47.5 -155q0 -104 47.5 -169.5t122.5 -65.5z" />
<glyph unicode="&#x26;" horiz-adv-x="1089" d="M1110 0h-164l-112 135q-151 -170 -388 -170q-171 0 -262.5 90t-91.5 244q0 85 32 159t80.5 130.5t133.5 134.5l-39 47q-83 100 -114 177t-31 155q0 142 76.5 224.5t220.5 82.5q60 0 111.5 -15.5t93.5 -47.5t66.5 -88t25.5 -132q0 -117 -61 -212.5t-173 -196.5l309 -373 q36 84 51 162l121 -17q-30 -142 -88 -247zM293 1110q0 -72 23.5 -129t86.5 -133l31 -37q92 92 132 158.5t40 138.5q0 87 -41 130.5t-112 43.5q-74 0 -117 -45.5t-43 -126.5zM467 92q173 0 287 137l-338 402q-183 -171 -183 -328q0 -96 60.5 -153.5t173.5 -57.5z" />
<glyph unicode="'" horiz-adv-x="380" d="M141 930l-20 467h139l-20 -467h-99z" />
<glyph unicode="(" horiz-adv-x="479" d="M397 -94q-140 0 -224.5 203t-84.5 585q0 383 84.5 589t224.5 206v-127q-76 0 -125 -191t-49 -477q0 -284 49.5 -472.5t124.5 -188.5v-127z" />
<glyph unicode=")" horiz-adv-x="479" d="M88 -94v127q75 0 124.5 188.5t49.5 472.5q0 286 -49 477t-125 191v127q140 0 224.5 -206t84.5 -589q0 -382 -84.5 -585t-224.5 -203z" />
<glyph unicode="*" horiz-adv-x="729" d="M276 909l-83 49l90 156h-181v96h179l-88 154l83 47l91 -154l88 154l84 -47l-88 -154h176v-96h-178l90 -156l-84 -49l-88 154z" />
<glyph unicode="+" horiz-adv-x="1024" d="M451 231v349h-349v112h349v369h122v-369h349v-112h-349v-349h-122z" />
<glyph unicode="," horiz-adv-x="417" d="M119 -260l-21 39q115 76 115 205q-49 0 -83 31t-34 81q0 51 31 81t80 30q52 0 84.5 -37.5t32.5 -95.5q0 -100 -57 -193.5t-148 -140.5z" />
<glyph unicode="-" horiz-adv-x="696" d="M117 446v115h465v-115h-465z" />
<glyph unicode="." horiz-adv-x="415" d="M207 -16q-45 0 -77 32.5t-32 79.5q0 44 32.5 77.5t76.5 33.5q47 0 79.5 -33t32.5 -80q0 -45 -32.5 -77.5t-79.5 -32.5z" />
<glyph unicode="/" horiz-adv-x="772" d="M70 0l508 1397h127l-508 -1397h-127z" />
<glyph unicode="0" d="M557 -33q-138 0 -252 92.5t-180 260.5t-66 378t65.5 377.5t179 259.5t251.5 92t251.5 -92t179 -259.5t65.5 -377.5q0 -157 -38.5 -294t-105 -232.5t-157.5 -150t-193 -54.5zM555 102q148 0 242 165.5t94 430.5q0 263 -94 428.5t-242 165.5q-149 0 -243.5 -165t-94.5 -429 q0 -265 94 -430.5t244 -165.5z" />
<glyph unicode="1" horiz-adv-x="847" d="M492 1397h139v-1397h-139v1167l-332 -327l-78 78z" />
<glyph unicode="2" horiz-adv-x="1021" d="M80 0v88q0 40 10 79.5t24 71.5t40.5 67.5t49 61t60 60.5t63 56t69.5 57.5t67 56.5q63 54 107 99t87 104t64.5 126.5t21.5 141.5q0 98 -66 158.5t-175 60.5q-191 0 -338 -196l-113 96q83 113 202 176t249 63q183 0 291 -97.5t108 -260.5q0 -74 -23 -146.5t-55 -128 t-86 -117t-97.5 -101.5t-107.5 -95q-146 -122 -180 -155q-109 -107 -110 -187h678v-139h-840z" />
<glyph unicode="3" horiz-adv-x="1087" d="M713 743q113 -34 182.5 -132t69.5 -228q0 -119 -59 -215t-160 -148.5t-222 -52.5q-151 0 -260 78t-162 209l123 72q104 -223 301 -226q123 -2 205 78t82 205q0 127 -81.5 209t-209.5 82h-98v127h90q113 0 180.5 72.5t67.5 187.5q0 104 -64.5 170.5t-165.5 66.5 q-105 0 -179 -58t-128 -167l-112 62q59 134 167 213t252 79q166 0 271.5 -102.5t105.5 -263.5q0 -110 -52.5 -196t-143.5 -122z" />
<glyph unicode="4" horiz-adv-x="1175" d="M1079 451v-140h-178v-311h-139v311h-701v140l701 946h139v-946h178zM209 451h553v729z" />
<glyph unicode="5" d="M588 905q203 0 316.5 -122.5t113.5 -342.5q0 -223 -120 -348t-335 -125q-140 0 -258 48.5t-190 136.5l108 75q51 -63 142 -98t202 -35q148 0 231 91.5t83 254.5q-1 160 -82 249t-224 89q-90 0 -190 -29.5t-188 -82.5v731h749v-144h-610v-393q127 45 252 45z" />
<glyph unicode="6" horiz-adv-x="1128" d="M549 950q201 0 334 -138.5t133 -352.5t-132 -353t-331 -139q-201 0 -334 156t-133 399q0 181 39 331t109 255t167 177.5t212.5 107t246.5 34.5v-131q-250 0 -412 -130.5t-206 -372.5q43 75 130.5 116t176.5 41zM549 94q140 0 234 103t94 262t-93.5 261.5t-234.5 102.5 q-149 0 -236.5 -97.5t-87.5 -244.5q0 -169 93 -278t231 -109z" />
<glyph unicode="7" horiz-adv-x="956" d="M92 1397h844l-500 -1397h-141l450 1253h-653v144z" />
<glyph unicode="8" horiz-adv-x="1134" d="M569 -33q-204 0 -340.5 119.5t-136.5 310.5q0 140 73 233.5t210 133.5q-223 79 -223 299q0 112 57.5 196t151 126t206.5 42q177 0 296.5 -99t119.5 -265q0 -219 -221 -299q280 -94 280 -367q0 -190 -135 -310t-338 -120zM569 831q124 0 193 57.5t69 172.5q0 117 -70 173 t-194 56t-195 -57.5t-71 -169.5q0 -116 73.5 -174t194.5 -58zM565 104q154 0 241 77t87 218q0 144 -85.5 219.5t-240.5 75.5q-152 0 -239.5 -76.5t-87.5 -216.5q0 -144 86.5 -220.5t238.5 -76.5z" />
<glyph unicode="9" d="M557 1427q201 0 334 -156t133 -399q0 -181 -39 -331t-109 -255t-167 -177.5t-212.5 -107t-246.5 -34.5v131q249 0 411.5 130.5t206.5 373.5q-43 -75 -130.5 -116.5t-176.5 -41.5q-201 0 -334 139t-133 353t132 352.5t331 138.5zM561 571q149 0 236.5 97.5t87.5 244.5 q0 169 -93 278t-231 109q-141 0 -234.5 -102.5t-93.5 -261.5t94 -262t234 -103z" />
<glyph unicode=":" horiz-adv-x="450" d="M225 743q-44 0 -77 34t-33 79q0 44 33 77.5t77 33.5q47 0 79 -33t32 -78t-32.5 -79t-78.5 -34zM225 -16q-45 0 -77.5 32.5t-32.5 79.5q0 44 33 77.5t77 33.5q47 0 79 -33t32 -80q0 -45 -32 -77.5t-79 -32.5z" />
<glyph unicode=";" horiz-adv-x="450" d="M225 745q-45 0 -77.5 33t-32.5 80q0 44 33 77.5t77 33.5q47 0 79 -33t32 -80q0 -45 -32 -78t-79 -33zM135 -260l-20 39q114 75 114 205q-49 0 -82.5 31t-33.5 81q0 51 31 81t79 30q52 0 84.5 -37.5t32.5 -95.5q0 -100 -57 -193.5t-148 -140.5z" />
<glyph unicode="&#x3c;" horiz-adv-x="1024" d="M840 897l-582 -311l582 -318l-54 -96l-735 412l735 411z" />
<glyph unicode="=" horiz-adv-x="1024" d="M102 709v112h820v-112h-820zM102 442v113h820v-113h-820z" />
<glyph unicode="&#x3e;" horiz-adv-x="1024" d="M238 995l735 -411l-735 -412l-54 96l582 318l-582 311z" />
<glyph unicode="?" horiz-adv-x="944" d="M379 381q0 68 11 121t26 89t48.5 72t61 58.5t80.5 60.5q119 85 119 236q0 130 -72.5 206t-191.5 76q-107 0 -176.5 -52.5t-96.5 -143.5l-129 41q47 124 153 203t253 79q104 0 196 -52.5t147.5 -144t55.5 -198.5q0 -57 -11 -105t-26 -80.5t-42 -64.5t-48 -50t-55 -44 q-80 -62 -105 -90q-77 -85 -77 -217h-121zM428 -16q-43 0 -77 33t-34 77t34 78.5t77 34.5q44 0 78.5 -34.5t34.5 -78.5q0 -42 -35 -76t-78 -34z" />
<glyph unicode="@" horiz-adv-x="1519" d="M793 1423q202 0 352.5 -102t228.5 -283t78 -417q0 -222 -81 -364t-210 -142q-74 0 -124 44.5t-70 133.5q-33 -90 -88.5 -135t-122.5 -45q-145 0 -237.5 127.5t-92.5 328.5q0 196 91.5 321.5t234.5 125.5q132 0 198 -133v98h127v-619q0 -55 22.5 -81.5t61.5 -26.5 q67 0 110.5 105.5t43.5 269.5q0 196 -61 346t-180 235.5t-281 85.5q-158 0 -291 -88t-213 -249t-80 -361q0 -223 78.5 -398.5t219 -273.5t318.5 -98q117 0 271 53l55 -119q-75 -27 -167 -44t-159 -17q-131 0 -248 42t-209 121.5t-159 188t-103 246.5t-36 293q0 179 57 334.5 t154.5 264t230.5 170.5t281 62zM752 238q99 0 148.5 88t49.5 237q0 143 -55.5 234.5t-142.5 91.5q-88 0 -144.5 -92t-56.5 -234t56.5 -233.5t144.5 -91.5z" />
<glyph unicode="A" horiz-adv-x="1198" d="M1030 0l-143 391h-580l-129 -391h-153l495 1397h144l510 -1397h-144zM354 518h486l-250 678z" />
<glyph unicode="B" horiz-adv-x="1175" d="M840 752q120 -32 186 -120t66 -231q0 -187 -112.5 -294t-309.5 -107h-508v1397h461q185 0 292 -97.5t107 -259.5q0 -105 -47 -179t-135 -109zM315 1268v-467h326q219 0 219 239q0 108 -63 168t-176 60h-306zM649 127q131 0 206 73.5t75 200.5t-75 200t-206 73h-334v-547 h334z" />
<glyph unicode="C" horiz-adv-x="1239" d="M682 -33q-266 0 -417.5 192.5t-151.5 534.5q0 345 147 539t404 194q173 0 297.5 -76t193.5 -216l-123 -72q-66 121 -153.5 173t-214.5 52q-183 0 -286.5 -156.5t-103.5 -435.5q0 -275 105 -432.5t283 -157.5q76 0 134.5 18t102 56t74.5 82t65 111l129 -78 q-152 -328 -485 -328z" />
<glyph unicode="D" horiz-adv-x="1312" d="M164 0v1397h346q325 0 507.5 -185.5t182.5 -515.5q0 -328 -182 -512t-508 -184h-346zM317 139h189q250 0 391 137t141 420q0 284 -141 421.5t-391 137.5h-189v-1116z" />
<glyph unicode="E" horiz-adv-x="1030" d="M162 0v1397h782v-129h-629v-488h492v-125h-492v-528h635v-127h-788z" />
<glyph unicode="F" horiz-adv-x="923" d="M162 0v1397h762v-129h-609v-488h451v-125h-451v-655h-153z" />
<glyph unicode="G" horiz-adv-x="1241" d="M629 -33q-266 0 -418 192.5t-152 534.5q0 345 152 539t418 194q308 0 481 -286l-121 -86q-128 233 -360 233q-192 0 -300 -156.5t-108 -435.5q0 -276 108.5 -433t299.5 -157q163 0 269 117t106 332h-330v127h481v-127q0 -143 -40 -256t-111 -185t-166.5 -109.5 t-208.5 -37.5z" />
<glyph unicode="H" horiz-adv-x="1372" d="M164 0v1397h153v-604h738v604h153v-1397h-153v666h-738v-666h-153z" />
<glyph unicode="I" horiz-adv-x="649" d="M113 0v135h135v1127h-135v135h424v-135h-136v-1127h136v-135h-424z" />
<glyph unicode="J" horiz-adv-x="1015" d="M440 -33q-143 0 -250 76.5t-165 216.5l129 62q30 -98 107 -154.5t171 -56.5q132 0 199 80.5t67 228.5v977h154v-977q0 -212 -111 -332.5t-301 -120.5z" />
<glyph unicode="K" horiz-adv-x="1116" d="M942 0l-479 672l-148 -174v-498h-153v1397h153v-707l590 707h170l-522 -619l563 -778h-174z" />
<glyph unicode="L" horiz-adv-x="974" d="M162 0v1397h153v-1270h629v-127h-782z" />
<glyph unicode="M" horiz-adv-x="1689" d="M1354 1397h172v-1397h-152v1116l-467 -1116h-143l-447 1112v-1112h-153v1397h188l490 -1225z" />
<glyph unicode="N" horiz-adv-x="1355" d="M164 0v1397h164l710 -1166v1166h154v-1397h-164l-711 1161v-1161h-153z" />
<glyph unicode="O" horiz-adv-x="1425" d="M713 -33q-174 0 -311 92.5t-213 259t-76 377.5t76 378t213 260t311 93t311 -93t213 -260.5t76 -379.5q0 -210 -76 -376t-213 -258.5t-311 -92.5zM713 109q193 0 318.5 165t125.5 422q0 170 -57.5 305.5t-158.5 211t-228 75.5t-228.5 -75.5t-159 -211t-57.5 -305.5 q0 -257 126 -422t319 -165z" />
<glyph unicode="P" horiz-adv-x="1095" d="M164 0v1397h467q189 0 301 -114.5t112 -317.5q0 -201 -117.5 -315.5t-312.5 -114.5h-297v-535h-153zM317 662h293q138 0 209.5 77t71.5 226t-71.5 227t-209.5 78h-293v-608z" />
<glyph unicode="Q" horiz-adv-x="1372" d="M1313 694q0 -167 -49.5 -307t-139.5 -240l121 -118l-90 -88l-125 125q-141 -99 -317 -99q-174 0 -311 92.5t-213 259t-76 377.5t76 378t213 260t311 93t311 -93t213 -260.5t76 -379.5zM713 109q114 0 209 61l-172 172l90 90l178 -176q139 168 139 440q0 170 -57.5 305.5 t-158.5 211t-228 75.5t-228.5 -75.5t-159 -211t-57.5 -305.5q0 -257 126 -422t319 -165z" />
<glyph unicode="R" horiz-adv-x="1187" d="M1108 0h-162l-354 616h-277v-616h-153v1397h467q193 0 307.5 -108.5t114.5 -282.5q0 -138 -84 -238.5t-224 -134.5zM315 1270v-527h293q135 0 208 72t73 191t-73.5 191.5t-207.5 72.5h-293z" />
<glyph unicode="S" horiz-adv-x="1193" d="M629 -33q-155 0 -300 77t-241 208l125 110q74 -117 188 -185t248 -68q145 0 221 64t76 175q0 63 -21.5 110.5t-68 82t-104 58.5t-144.5 48q-442 107 -442 402q0 183 118 280.5t330 97.5q306 0 494 -233l-121 -102q-74 100 -162.5 148t-210.5 48q-130 0 -211 -60.5 t-81 -164.5q0 -107 75.5 -169.5t255.5 -105.5q81 -22 143.5 -46.5t122 -61.5t98 -82.5t62 -109t23.5 -140.5q0 -171 -128 -276t-345 -105z" />
<glyph unicode="T" horiz-adv-x="1093" d="M471 0v1270h-440v127h1032v-127h-440v-1270h-152z" />
<glyph unicode="U" horiz-adv-x="1351" d="M680 -33q-258 0 -387 140t-129 411v879h153v-879q0 -412 363 -412q164 0 259 106.5t95 305.5v879h154v-879q0 -266 -134.5 -408.5t-373.5 -142.5z" />
<glyph unicode="V" horiz-adv-x="1136" d="M987 1397h150l-488 -1397h-164l-485 1397h154l413 -1227z" />
<glyph unicode="W" horiz-adv-x="1742" d="M1552 1397h146l-373 -1397h-160l-291 1122l-299 -1122h-157l-373 1397h158l299 -1176l311 1176h125l313 -1186z" />
<glyph unicode="X" horiz-adv-x="1056" d="M1047 0h-173l-352 582l-329 -582h-173l404 690l-414 707h166l348 -596l357 596h159l-419 -692z" />
<glyph unicode="Y" horiz-adv-x="991" d="M881 1397h141l-453 -826v-571h-151v578l-449 819h154l381 -697z" />
<glyph unicode="Z" horiz-adv-x="1030" d="M78 0v129l741 1141h-721v127h873v-154l-729 -1116h708v-127h-872z" />
<glyph unicode="[" horiz-adv-x="530" d="M137 -80v1557h352v-80h-198v-1397h198v-80h-352z" />
<glyph unicode="\" horiz-adv-x="772" d="M575 0l-507 1397h127l507 -1397h-127z" />
<glyph unicode="]" horiz-adv-x="530" d="M41 -80v80h201v1397h-201v80h352v-1557h-352z" />
<glyph unicode="^" horiz-adv-x="1024" d="M954 756l-90 -74l-352 463l-354 -463l-86 74l442 587z" />
<glyph unicode="_" horiz-adv-x="937" d="M0 -176v121h938v-121h-938z" />
<glyph unicode="`" horiz-adv-x="794" d="M592 1161l-471 240l69 119l443 -289z" />
<glyph unicode="a" d="M881 958h139v-958h-139v141q-59 -83 -145 -128.5t-189 -45.5q-209 0 -343 144t-134 370q0 224 133 367t340 143q105 0 192 -46t146 -130v143zM543 94q149 0 243.5 108t94.5 277t-94.5 277t-243.5 108q-146 0 -240 -107t-94 -276q0 -170 94 -278.5t240 -108.5z" />
<glyph unicode="b" d="M608 991q207 0 340 -143t133 -367q0 -226 -134 -370t-343 -144q-103 0 -189 45.5t-145 128.5v-141h-139v1487h139v-672q59 84 146 130t192 46zM608 94q146 0 240 108.5t94 278.5q0 169 -94 276t-240 107q-149 0 -243.5 -108t-94.5 -277t94.5 -277t243.5 -108z" />
<glyph unicode="c" horiz-adv-x="976" d="M545 -33q-211 0 -345 144t-134 368q0 225 133 368.5t342 143.5q117 0 203.5 -50t158.5 -142l-102 -80q-99 145 -260 145q-148 0 -242 -108t-94 -277t94 -277t242 -108q99 0 162 34t114 99l109 -75q-67 -85 -166.5 -135t-214.5 -50z" />
<glyph unicode="d" d="M881 1487h139v-1487h-139v141q-59 -83 -145 -128.5t-189 -45.5q-209 0 -343 144t-134 370q0 224 133 367t340 143q105 0 192 -46t146 -130v672zM543 94q149 0 243.5 108t94.5 277t-94.5 277t-243.5 108q-146 0 -240 -107t-94 -276q0 -170 94 -278.5t240 -108.5z" />
<glyph unicode="e" horiz-adv-x="1075" d="M543 991q138 0 247.5 -71t165.5 -195.5t41 -273.5h-788q4 -70 27 -133t63.5 -113.5t104 -80.5t141.5 -30q230 0 334 174l110 -73q-147 -228 -440 -228q-211 0 -345 144t-134 368t133 368t340 144zM217 565h643q-40 299 -317 299q-134 0 -218.5 -85t-107.5 -214z" />
<glyph unicode="f" horiz-adv-x="563" d="M483 1395q-72 0 -118 -49.5t-46 -126.5v-261h222v-127h-222v-831h-139v831h-123v127h123v261q0 133 85 218t218 85h58v-127h-58z" />
<glyph unicode="g" d="M881 958h139v-921q0 -197 -118 -322t-304 -125h-397v127h397q124 0 203.5 90t79.5 230v104q-59 -83 -145 -128.5t-189 -45.5q-209 0 -343 144t-134 370q0 224 133 367t340 143q105 0 192 -46t146 -130v143zM543 94q149 0 243.5 108t94.5 277t-94.5 277t-243.5 108 q-146 0 -240 -107t-94 -276q0 -170 94 -278.5t240 -108.5z" />
<glyph unicode="h" horiz-adv-x="1093" d="M586 991q156 0 263 -94t107 -256v-641h-139v580q0 284 -254 284q-147 0 -221 -104.5t-74 -280.5v-479h-139v1487h139v-688q105 192 318 192z" />
<glyph unicode="i" horiz-adv-x="548" d="M274 1145q-47 0 -78.5 32.5t-31.5 79.5q0 45 31.5 77t78.5 32q45 0 78 -32t33 -79q0 -44 -33.5 -77t-77.5 -33zM205 0v958h139v-958h-139z" />
<glyph unicode="j" horiz-adv-x="395" d="M199 1145q-47 0 -79 32.5t-32 79.5q0 45 32 77t79 32q45 0 77.5 -32t32.5 -79q0 -44 -33 -77t-77 -33zM-92 -410v127h57q72 0 118 50t46 127v1064h139v-1064q0 -134 -85 -219t-218 -85h-57z" />
<glyph unicode="k" horiz-adv-x="892" d="M721 0l-336 494l-117 -113v-381h-139v1487h139v-930l420 401h180l-387 -372l396 -586h-156z" />
<glyph unicode="l" horiz-adv-x="415" d="M139 0v1487h140v-1487h-140z" />
<glyph unicode="m" horiz-adv-x="1576" d="M1149 991q134 0 221.5 -93t87.5 -257v-641h-139v580q0 152 -57 218t-150 66q-113 0 -176 -86.5t-72 -236.5v-541h-139v580q0 152 -57 218t-150 66q-124 0 -187 -104.5t-63 -280.5v-479h-139v958h139v-149q97 182 287 182q103 0 181 -56.5t110 -160.5q45 103 122.5 160 t180.5 57z" />
<glyph unicode="n" horiz-adv-x="1099" d="M586 991q156 0 263 -94t107 -256v-641h-139v580q0 284 -254 284q-147 0 -221 -104.5t-74 -280.5v-479h-139v958h139v-159q105 192 318 192z" />
<glyph unicode="o" horiz-adv-x="1087" d="M547 -33q-208 0 -342.5 144.5t-134.5 369.5q0 224 133 367t340 143q209 0 343 -144t134 -368t-133 -368t-340 -144zM543 94q149 0 243.5 108t94.5 277t-94.5 277t-243.5 108q-146 0 -240 -107t-94 -276q0 -170 94 -278.5t240 -108.5z" />
<glyph unicode="p" d="M604 991q209 0 343 -144t134 -370q0 -224 -133 -367t-340 -143q-105 0 -192 46t-146 130v-553h-139v1368h139v-141q59 83 145 128.5t189 45.5zM608 94q146 0 240 107t94 276q0 170 -94 278.5t-240 108.5q-149 0 -243.5 -108t-94.5 -277t94.5 -277t243.5 -108z" />
<glyph unicode="q" d="M883 958h139v-1368h-139v553q-59 -84 -146 -130t-192 -46q-207 0 -340 143t-133 367q0 226 134 370t343 144q103 0 189 -45.5t145 -128.5v141zM545 94q149 0 243.5 108t94.5 277t-94.5 277t-243.5 108q-146 0 -240 -108.5t-94 -278.5q0 -169 94 -276t240 -107z" />
<glyph unicode="r" horiz-adv-x="694" d="M600 991q48 0 94 -14v-127q-44 20 -94 20q-137 0 -234.5 -111t-97.5 -300v-459h-139v958h139v-192q55 106 141 165.5t191 59.5z" />
<glyph unicode="s" horiz-adv-x="950" d="M467 -33q-138 0 -244.5 59.5t-161.5 168.5l125 61q76 -162 297 -162q107 0 176.5 39t69.5 121q0 84 -56 125t-198 53q-196 16 -281 87.5t-85 191.5q0 134 96 207t264 73q285 0 387 -225l-125 -61q-36 81 -101.5 120t-170.5 39q-106 0 -162.5 -38.5t-56.5 -110.5 q0 -67 60.5 -109t207.5 -55q183 -17 271.5 -90t88.5 -191q0 -96 -57.5 -166t-147 -103.5t-196.5 -33.5z" />
<glyph unicode="t" horiz-adv-x="563" d="M180 0v831h-164v127h164v318h139v-318h222v-127h-222v-831h-139z" />
<glyph unicode="u" horiz-adv-x="1099" d="M831 958h140v-958h-140v160q-50 -93 -131 -143t-186 -50q-157 0 -264 94t-107 256v641h140v-579q0 -285 254 -285q147 0 220.5 104t73.5 281v479z" />
<glyph unicode="v" horiz-adv-x="931" d="M750 958h141l-348 -958h-154l-346 958h145l283 -808z" />
<glyph unicode="w" horiz-adv-x="1472" d="M1296 958h134l-312 -958h-145l-234 735l-252 -735h-139l-315 958h147l246 -761l250 761h135l242 -757z" />
<glyph unicode="x" horiz-adv-x="946" d="M881 0h-160l-250 399l-250 -399h-155l307 492l-289 466h158l231 -376l244 376h153l-301 -464z" />
<glyph unicode="y" horiz-adv-x="919" d="M788 958h132l-519 -1368h-139l152 392l-394 976h146l317 -794z" />
<glyph unicode="z" horiz-adv-x="860" d="M784 958v-127l-548 -704h548v-127h-708v127l549 704h-549v127h708z" />
<glyph unicode="{" horiz-adv-x="505" d="M436 -104q-130 0 -206 72.5t-76 189.5q0 48 7 164t7 155q0 50 -49.5 104.5t-104.5 63.5v94q60 11 114 62.5t54 105.5q0 45 -14 157t-14 163q0 119 76 190.5t204 71.5v-94q-67 0 -113.5 -40t-46.5 -106q0 -44 7.5 -162t7.5 -178q0 -141 -142 -217q140 -78 140 -217 q0 -47 -7.5 -174t-7.5 -166q0 -71 47 -108t117 -37v-94z" />
<glyph unicode="|" horiz-adv-x="354" d="M135 -283v1819h105v-1819h-105z" />
<glyph unicode="}" horiz-adv-x="505" d="M55 -104v94q70 0 117 37t47 108q0 39 -7 166t-7 174q0 140 139 217q-141 75 -141 217q0 60 7 178t7 162q0 66 -46.5 106t-113.5 40v94q129 0 205 -71.5t76 -190.5q0 -51 -14.5 -163t-14.5 -157q0 -54 54 -105.5t114 -62.5v-94q-55 -9 -104 -63.5t-49 -104.5q0 -39 7 -155 t7 -164q0 -117 -76.5 -189.5t-206.5 -72.5z" />
<glyph unicode="~" horiz-adv-x="1024" d="M690 526q-50 0 -101 19t-86.5 41.5t-85.5 41.5t-98 19q-90 0 -169 -72l-48 76q92 109 232 109q57 0 108.5 -19t84.5 -41.5t79.5 -41.5t93.5 -19q88 0 168 66l54 -68q-44 -53 -105 -82t-127 -29z" />
<glyph unicode="&#xa1;" horiz-adv-x="471" d="M238 1196q46 0 78 -33t32 -78q0 -47 -31.5 -79.5t-78.5 -32.5q-44 0 -77.5 33t-33.5 77q0 47 33 80t78 33zM166 799h139v-1016h-139v1016z" />
<glyph unicode="&#xa2;" horiz-adv-x="976" d="M926 356q-61 -78 -153 -127.5t-198 -56.5v-188h-83v190q-190 20 -308 160t-118 350t118 350.5t308 159.5v137h83v-137q104 -7 182.5 -56t145.5 -134l-102 -80q-88 129 -226 143v-766q84 6 140.5 39t101.5 92zM205 684q0 -154 79.5 -258t207.5 -123v762 q-128 -19 -207.5 -123t-79.5 -258z" />
<glyph unicode="&#xa3;" horiz-adv-x="962" d="M496 571q0 -112 -60 -218.5t-174 -225.5h629v-127h-782v127q239 234 239 414q0 57 -20 110h-205v99h160q-16 26 -51.5 74t-57.5 80.5t-40.5 87.5t-18.5 114q0 78 35.5 140.5t94.5 101t131 59t150 20.5q168 0 283 -86t115 -213h-162q0 76 -66 118t-170 42 q-107 0 -179.5 -44t-72.5 -126q0 -37 13.5 -74.5t30.5 -64t50 -77t56 -89.5l33 -63h305v-99h-275q9 -41 9 -80z" />
<glyph unicode="&#xa4;" horiz-adv-x="999" d="M799 834q75 -100 74.5 -226.5t-76.5 -224.5l110 -111l-73 -73l-111 110q-100 -76 -225.5 -76.5t-223.5 74.5l-108 -108l-74 73l109 109q-75 98 -75 224t75 226l-109 109l74 74l108 -109q100 77 226 77t227 -77l107 109l73 -74zM322 428q74 -73 177.5 -72.5t178.5 74.5 q68 69 73 164.5t-55 169.5l-39 39q-73 60 -169.5 55t-165.5 -74q-74 -74 -74 -178t74 -178z" />
<glyph unicode="&#xa5;" horiz-adv-x="991" d="M1022 1397l-432 -789h172v-98h-193v-107h193v-98h-193v-305h-151v305h-193v98h193v107h-193v98h176l-432 789h154l381 -697l377 697h141z" />
<glyph unicode="&#xa6;" horiz-adv-x="366" d="M141 797v739h84v-739h-84zM141 -139v739h84v-739h-84z" />
<glyph unicode="&#xa7;" horiz-adv-x="897" d="M815 637q0 -126 -127 -211q74 -80 74 -188q0 -113 -83 -191t-218 -78q-109 0 -207.5 42t-161.5 132l107 66q64 -113 243 -113q85 0 133 35.5t48 106.5q0 73 -47.5 114.5t-155.5 73.5q-158 45 -225.5 118.5t-67.5 172.5q0 65 35 123t100 84q-90 78 -90 196t84.5 193.5 t212.5 75.5q182 0 297 -156l-96 -78q-75 107 -195 107q-74 0 -118 -35.5t-44 -104.5q0 -132 191 -186q165 -45 238 -113.5t73 -185.5zM246 741q0 -72 50.5 -118t156.5 -72q86 -21 151 -59q45 33 61.5 64.5t16.5 78.5q0 68 -47.5 108t-167.5 76q-64 18 -133 53 q-88 -46 -88 -131z" />
<glyph unicode="&#xa8;" horiz-adv-x="950" d="M274 1145q-45 0 -77.5 32.5t-32.5 79.5q0 44 33 76.5t77 32.5q47 0 80 -32t33 -79q0 -45 -33 -77.5t-80 -32.5zM672 1145q-45 0 -77 32.5t-32 79.5q0 44 32.5 76.5t76.5 32.5q48 0 81 -32t33 -79q0 -45 -33.5 -77.5t-80.5 -32.5z" />
<glyph unicode="&#xa9;" horiz-adv-x="1437" d="M719 -43q-131 0 -248.5 50.5t-200 135.5t-130.5 200.5t-48 242.5q0 174 85.5 319t229.5 227t312 82q131 0 248 -51t200.5 -136t132 -200.5t48.5 -240.5q0 -131 -50.5 -248.5t-135.5 -200.5t-200.5 -131.5t-242.5 -48.5zM719 53q150 0 273 73t191 194.5t68 265.5 q0 148 -72 271t-194 192t-266 69q-151 0 -274 -72t-191 -194t-68 -266q0 -149 72 -272t194 -192t267 -69zM729 229q-144 0 -236 98.5t-92 252.5t91.5 252t234.5 98q68 0 140 -39t116 -100l-92 -60q-31 41 -77 67.5t-87 26.5q-94 0 -153.5 -69t-59.5 -176q0 -109 59.5 -178.5 t153.5 -69.5q51 0 102 26.5t80 67.5l88 -61q-44 -60 -119 -98t-149 -38z" />
<glyph unicode="&#xaa;" horiz-adv-x="835" d="M608 1407h105v-596h-105v82q-71 -100 -190 -100q-129 0 -212 89t-83 228q0 138 83 226.5t212 88.5q118 0 190 -98v80zM418 889q83 0 136.5 62.5t53.5 160.5q0 96 -54 156.5t-140 60.5q-83 0 -136 -62t-53 -159t54 -158t139 -61zM123 584v104h590v-104h-590z" />
<glyph unicode="&#xab;" horiz-adv-x="1032" d="M561 854l-291 -303l291 -307l-88 -76l-391 381l391 383zM909 854l-291 -303l291 -307l-88 -76l-391 381l391 383z" />
<glyph unicode="&#xac;" horiz-adv-x="1024" d="M782 328v252h-680v112h820v-364h-140z" />
<glyph unicode="&#xad;" horiz-adv-x="679" d="M117 446v115h465v-115h-465z" />
<glyph unicode="&#xae;" horiz-adv-x="1437" d="M719 1214q131 0 248 -51t200.5 -136t132 -200.5t48.5 -240.5q0 -131 -50.5 -248.5t-135.5 -200.5t-200.5 -131.5t-242.5 -48.5q-131 0 -248.5 50.5t-200 135.5t-130.5 200.5t-48 242.5q0 174 85.5 319t229.5 227t312 82zM719 53q150 0 273 73t191 194.5t68 265.5 q0 148 -72 271t-194 192t-266 69q-151 0 -274 -72t-191 -194t-68 -266q0 -149 72 -272t194 -192t267 -69zM971 717q0 -72 -33.5 -121t-93.5 -70l170 -286l-127 -2l-166 274h-125v-272h-113v680h265q102 0 162.5 -52.5t60.5 -150.5zM596 817v-201h154q52 0 77 28t25 73 t-26 72.5t-76 27.5h-154z" />
<glyph unicode="&#xaf;" horiz-adv-x="829" d="M121 1200v92h547v-92h-547z" />
<glyph unicode="&#xb0;" horiz-adv-x="755" d="M377 879q-120 0 -197.5 76t-77.5 196q0 121 77.5 198.5t197.5 77.5q122 0 199 -77.5t77 -200.5q0 -119 -77.5 -194.5t-198.5 -75.5zM377 987q72 0 118 46t46 118q0 74 -46 121t-118 47t-118 -47t-46 -121q0 -72 46 -118t118 -46z" />
<glyph unicode="&#xb1;" horiz-adv-x="1024" d="M451 442v267h-349v112h349v287h122v-287h349v-112h-349v-267h-122zM102 238v112h820v-112h-820z" />
<glyph unicode="&#xb2;" horiz-adv-x="710" d="M96 528v66q0 26 7 52.5t15 47t27 46t30.5 40t39.5 40.5t40 36.5t45 38t42 35.5q76 67 116 121t40 118q0 68 -33.5 102t-106.5 34q-54 0 -107.5 -34t-96.5 -95l-82 75q62 85 130.5 122.5t166.5 37.5q108 0 177.5 -65.5t69.5 -178.5q0 -41 -12.5 -80t-27 -65t-48.5 -61.5 t-52.5 -52t-63.5 -54.5q-175 -135 -191 -215h408v-111h-533z" />
<glyph unicode="&#xb3;" horiz-adv-x="696" d="M438 989q81 -22 128.5 -77.5t47.5 -133.5q0 -116 -77 -188t-199 -72q-101 0 -175.5 48.5t-107.5 142.5l92 55q28 -70 74 -101.5t123 -33.5q66 -2 111 40.5t45 108.5q0 69 -44.5 112.5t-115.5 43.5h-76v108h72q60 0 99.5 38.5t39.5 99.5q0 55 -36.5 90t-92.5 35 q-126 0 -192 -138l-93 52q42 95 116.5 143.5t168.5 48.5q108 0 175 -62.5t67 -168.5q0 -65 -40.5 -115.5t-109.5 -75.5z" />
<glyph unicode="&#xb4;" horiz-adv-x="794" d="M160 1161l-41 70l442 289l70 -119z" />
<glyph unicode="&#xb5;" horiz-adv-x="1179" d="M131 -410v1368h139v-565q0 -71 10.5 -121t37 -92.5t77.5 -64t127 -21.5q72 0 127.5 35t87 92.5t47 122.5t15.5 135v479h139v-632q0 -131 23.5 -182.5t80.5 -51.5t84 17l21 -101q-41 -41 -137 -41q-80 0 -129.5 49.5t-61.5 147.5q-90 -197 -295 -197q-91 0 -151 28 t-103 85v-490h-139z" />
<glyph unicode="&#xb6;" horiz-adv-x="1087" d="M502 0v578q-192 0 -314 113.5t-122 293.5q0 182 137 297t354 115h387v-1397h-153v1268h-136v-1268h-153zM502 709v555q-119 0 -194 -78t-75 -201q0 -122 75.5 -199t193.5 -77z" />
<glyph unicode="&#xb7;" horiz-adv-x="450" d="M225 408q-45 0 -77.5 32.5t-32.5 79.5q0 44 33 77.5t77 33.5q47 0 79 -33t32 -80q0 -45 -32 -77.5t-79 -32.5z" />
<glyph unicode="&#xb8;" horiz-adv-x="706" d="M119 -410v56q101 0 192 24q95 21 95 62q0 22 -15 33.5t-63.5 17.5t-143.5 6l99 211h104l-68 -139q104 0 162 -35t58 -82q0 -154 -420 -154z" />
<glyph unicode="&#xb9;" horiz-adv-x="552" d="M319 1397h111v-869h-117v676l-188 -182l-64 63z" />
<glyph unicode="&#xba;" horiz-adv-x="835" d="M418 793q-129 0 -212 89t-83 228q0 138 83 226.5t212 88.5t212 -88.5t83 -226.5q0 -139 -83 -228t-212 -89zM418 889q83 0 136.5 62.5t53.5 160.5q0 96 -54 156.5t-140 60.5q-83 0 -136 -62t-53 -159t54 -158t139 -61zM123 584v104h590v-104h-590z" />
<glyph unicode="&#xbb;" horiz-adv-x="1032" d="M211 932l391 -383l-391 -381l-88 76l291 307l-291 303zM559 932l391 -383l-391 -381l-88 76l291 307l-291 303z" />
<glyph unicode="&#xbc;" horiz-adv-x="1642" d="M61 1085l258 312h111v-869h-117v676l-188 -182zM958 1397h127l-507 -1397h-127zM1561 272v-106h-123v-166h-117v166h-399v96l405 602h111v-592h123zM1047 272h274v398z" />
<glyph unicode="&#xbd;" horiz-adv-x="1630" d="M61 1085l258 312h111v-869h-117v676l-188 -182zM958 1397h127l-507 -1397h-127zM1141 111h407v-111h-532v66q0 26 6.5 52.5t15 47t27 45.5t31 40t39.5 40.5t40 36.5t45 37.5t42 35.5q75 66 115 121t40 119q0 68 -33 101.5t-106 33.5q-54 0 -108 -34t-97 -95l-82 76 q62 85 130.5 122.5t166.5 37.5q109 0 178.5 -65.5t69.5 -178.5q0 -35 -6.5 -65.5t-24.5 -60.5t-30.5 -49.5t-44.5 -49.5t-46 -42.5t-53 -45.5q-174 -134 -190 -215z" />
<glyph unicode="&#xbe;" horiz-adv-x="1724" d="M438 989q81 -22 128.5 -77.5t47.5 -133.5q0 -116 -77 -188t-199 -72q-101 0 -175.5 48.5t-107.5 142.5l92 55q28 -70 74 -101.5t123 -33.5q66 -2 111 40.5t45 108.5q0 69 -44.5 112.5t-115.5 43.5h-76v108h72q60 0 99.5 38.5t39.5 99.5q0 55 -36.5 90t-92.5 35 q-126 0 -192 -138l-93 52q42 95 116.5 143.5t168.5 48.5q108 0 175 -62.5t67 -168.5q0 -65 -40.5 -115.5t-109.5 -75.5zM1102 1397h127l-508 -1397h-127zM1642 272v-106h-122v-166h-117v166h-399v96l405 602h111v-592h122zM1128 272h275v398z" />
<glyph unicode="&#xbf;" horiz-adv-x="944" d="M516 1229q43 0 77 -33.5t34 -77.5t-34 -78t-77 -34q-44 0 -78.5 34t-34.5 78q0 43 35 77t78 34zM565 831q0 -68 -11 -121t-26 -89t-48.5 -72t-61 -58.5t-80.5 -60.5q-119 -85 -119 -235q0 -130 73 -206.5t191 -76.5q107 0 176.5 53t96.5 144l129 -41 q-47 -124 -153 -203.5t-253 -79.5q-104 0 -196 52.5t-147.5 144t-55.5 198.5q0 57 11 105t26 80.5t42 64.5t48 50t55 44q80 62 105 90q77 85 77 217h121z" />
<glyph unicode="&#xc0;" horiz-adv-x="1198" d="M856 1554l-41 -69l-471 178l70 119zM1030 0l-143 391h-580l-129 -391h-153l495 1397h144l510 -1397h-144zM354 518h486l-250 678z" />
<glyph unicode="&#xc1;" horiz-adv-x="1198" d="M856 1663l-471 -178l-41 69l442 228zM1030 0l-143 391h-580l-129 -391h-153l495 1397h144l510 -1397h-144zM354 518h486l-250 678z" />
<glyph unicode="&#xc2;" horiz-adv-x="1198" d="M598 1647l-279 -138l-38 70l317 213l320 -213l-39 -70zM1030 0l-143 391h-580l-129 -391h-153l495 1397h144l510 -1397h-144zM354 518h486l-250 678z" />
<glyph unicode="&#xc3;" horiz-adv-x="1198" d="M459 1608q-54 0 -81 -17t-38 -53h-92q10 80 61 137.5t140 57.5q42 0 85.5 -15t74.5 -32.5t71 -32.5t74 -15q43 0 71 21.5t31 52.5h94q-11 -84 -56.5 -139t-139.5 -55q-55 0 -103 22.5t-94.5 45t-97.5 22.5zM1030 0l-143 391h-580l-129 -391h-153l495 1397h144l510 -1397 h-144zM354 518h486l-250 678z" />
<glyph unicode="&#xc4;" horiz-adv-x="1198" d="M399 1554q-47 0 -78.5 32.5t-31.5 80.5q0 45 31.5 77t78.5 32q45 0 79 -32.5t34 -78.5q0 -44 -34.5 -77.5t-78.5 -33.5zM801 1554q-47 0 -80 33t-33 80q0 45 33 77t80 32q45 0 77.5 -32t32.5 -79q0 -44 -33 -77.5t-77 -33.5zM1030 0l-143 391h-580l-129 -391h-153 l495 1397h144l510 -1397h-144zM354 518h486l-250 678z" />
<glyph unicode="&#xc5;" horiz-adv-x="1198" d="M598 1516q-85 0 -144 58.5t-59 143.5t59 145t144 60t145 -60t60 -145q0 -84 -60 -143t-145 -59zM600 1821q-42 0 -72 -29.5t-30 -71.5q0 -43 29.5 -73.5t72.5 -30.5q41 0 70.5 30.5t29.5 71.5q0 43 -29.5 73t-70.5 30zM1030 0l-143 391h-580l-129 -391h-153l495 1397h144 l510 -1397h-144zM354 518h486l-250 678z" />
<glyph unicode="&#xc6;" horiz-adv-x="1683" d="M967 127h637v-127h-789v406h-434l-238 -406h-143l815 1393v4h782v-129h-630v-447h491v-125h-491v-569zM815 518v633l-369 -633h369z" />
<glyph unicode="&#xc7;" horiz-adv-x="1239" d="M1167 295q-141 -306 -442 -326l-53 -108q104 0 161.5 -35t57.5 -82q0 -154 -420 -154v56q103 0 195 24q92 21 92 62q0 22 -15 33.5t-63 17.5t-143 6l84 180q-239 23 -373.5 213.5t-134.5 511.5q0 345 147 539t404 194q173 0 297.5 -76t193.5 -216l-123 -72 q-66 121 -153.5 173t-214.5 52q-183 0 -286.5 -156.5t-103.5 -435.5q0 -275 105 -432.5t283 -157.5q76 0 134.5 18t102 56t74.5 82t65 111z" />
<glyph unicode="&#xc8;" horiz-adv-x="1030" d="M793 1485l-471 178l69 119l443 -228zM162 0v1397h782v-129h-629v-488h492v-125h-492v-528h635v-127h-788z" />
<glyph unicode="&#xc9;" horiz-adv-x="1030" d="M362 1485l-40 69l442 228l70 -119zM162 0v1397h782v-129h-629v-488h492v-125h-492v-528h635v-127h-788z" />
<glyph unicode="&#xca;" horiz-adv-x="1030" d="M297 1509l-39 70l317 213l320 -213l-39 -70l-281 138zM162 0v1397h782v-129h-629v-488h492v-125h-492v-528h635v-127h-788z" />
<glyph unicode="&#xcb;" horiz-adv-x="1030" d="M377 1554q-47 0 -79 33t-32 80q0 45 32 77t79 32q45 0 78.5 -32.5t33.5 -78.5q0 -44 -34 -77.5t-78 -33.5zM778 1554q-47 0 -79.5 33t-32.5 80q0 45 32.5 77t79.5 32q45 0 78 -32t33 -79q0 -44 -33.5 -77.5t-77.5 -33.5zM162 0v1397h782v-129h-629v-488h492v-125h-492 v-528h635v-127h-788z" />
<glyph unicode="&#xcc;" horiz-adv-x="649" d="M541 1485l-471 178l69 119l443 -228zM113 0v135h135v1127h-135v135h424v-135h-136v-1127h136v-135h-424z" />
<glyph unicode="&#xcd;" horiz-adv-x="649" d="M111 1485l-41 69l442 228l70 -119zM113 0v135h135v1127h-135v135h424v-135h-136v-1127h136v-135h-424z" />
<glyph unicode="&#xce;" horiz-adv-x="649" d="M45 1509l-39 70l318 213l319 -213l-39 -70l-280 138zM113 0v135h135v1127h-135v135h424v-135h-136v-1127h136v-135h-424z" />
<glyph unicode="&#xcf;" horiz-adv-x="649" d="M125 1554q-47 0 -79 33t-32 80q0 45 32 77t79 32q45 0 79 -32.5t34 -78.5q0 -44 -34.5 -77.5t-78.5 -33.5zM526 1554q-47 0 -79.5 33t-32.5 80q0 45 32.5 77t79.5 32q45 0 78 -32t33 -79q0 -44 -33.5 -77.5t-77.5 -33.5zM113 0v135h135v1127h-135v135h424v-135h-136 v-1127h136v-135h-424z" />
<glyph unicode="&#xd0;" horiz-adv-x="1312" d="M510 1397q325 0 507.5 -185.5t182.5 -515.5q0 -328 -182 -512t-508 -184h-346v649h-144v99h144v649h346zM506 139q250 0 391 137t141 420q0 284 -141 421.5t-391 137.5h-189v-507h240v-99h-240v-510h189z" />
<glyph unicode="&#xd1;" horiz-adv-x="1355" d="M801 1518q-55 0 -103 22.5t-94.5 45t-97.5 22.5q-54 0 -81 -17t-38 -53h-92q10 80 61 137.5t140 57.5q42 0 86 -15t74.5 -32.5t70.5 -32.5t74 -15q43 0 71 21.5t31 52.5h94q-11 -84 -56.5 -139t-139.5 -55zM164 0v1397h164l710 -1166v1166h154v-1397h-164l-711 1161 v-1161h-153z" />
<glyph unicode="&#xd2;" horiz-adv-x="1425" d="M928 1485l-471 178l69 119l443 -228zM713 -33q-174 0 -311 92.5t-213 259t-76 377.5t76 378t213 260t311 93t311 -93t213 -260.5t76 -379.5q0 -210 -76 -376t-213 -258.5t-311 -92.5zM713 109q193 0 318.5 165t125.5 422q0 170 -57.5 305.5t-158.5 211t-228 75.5 t-228.5 -75.5t-159 -211t-57.5 -305.5q0 -257 126 -422t319 -165z" />
<glyph unicode="&#xd3;" horiz-adv-x="1425" d="M498 1485l-41 69l442 228l70 -119zM713 -33q-174 0 -311 92.5t-213 259t-76 377.5t76 378t213 260t311 93t311 -93t213 -260.5t76 -379.5q0 -210 -76 -376t-213 -258.5t-311 -92.5zM713 109q193 0 318.5 165t125.5 422q0 170 -57.5 305.5t-158.5 211t-228 75.5 t-228.5 -75.5t-159 -211t-57.5 -305.5q0 -257 126 -422t319 -165z" />
<glyph unicode="&#xd4;" horiz-adv-x="1425" d="M432 1509l-39 70l318 213l319 -213l-39 -70l-280 138zM713 -33q-174 0 -311 92.5t-213 259t-76 377.5t76 378t213 260t311 93t311 -93t213 -260.5t76 -379.5q0 -210 -76 -376t-213 -258.5t-311 -92.5zM713 109q193 0 318.5 165t125.5 422q0 170 -57.5 305.5t-158.5 211 t-228 75.5t-228.5 -75.5t-159 -211t-57.5 -305.5q0 -257 126 -422t319 -165z" />
<glyph unicode="&#xd5;" horiz-adv-x="1425" d="M866 1518q-55 0 -103 22.5t-94.5 45t-97.5 22.5q-54 0 -80.5 -16.5t-37.5 -53.5h-93q10 80 61 137.5t140 57.5q42 0 85.5 -15t74.5 -32.5t71 -32.5t74 -15q43 0 71.5 22t31.5 52h94q-10 -84 -56.5 -139t-140.5 -55zM713 -33q-174 0 -311 92.5t-213 259t-76 377.5t76 378 t213 260t311 93t311 -93t213 -260.5t76 -379.5q0 -210 -76 -376t-213 -258.5t-311 -92.5zM713 109q193 0 318.5 165t125.5 422q0 170 -57.5 305.5t-158.5 211t-228 75.5t-228.5 -75.5t-159 -211t-57.5 -305.5q0 -257 126 -422t319 -165z" />
<glyph unicode="&#xd6;" horiz-adv-x="1425" d="M512 1554q-47 0 -79 33t-32 80q0 45 32 77t79 32q45 0 79 -32.5t34 -78.5q0 -44 -34.5 -77.5t-78.5 -33.5zM913 1554q-47 0 -79.5 33t-32.5 80q0 45 32.5 77t79.5 32q45 0 78 -32t33 -79q0 -44 -33.5 -77.5t-77.5 -33.5zM713 -33q-174 0 -311 92.5t-213 259t-76 377.5 t76 378t213 260t311 93t311 -93t213 -260.5t76 -379.5q0 -210 -76 -376t-213 -258.5t-311 -92.5zM713 109q193 0 318.5 165t125.5 422q0 170 -57.5 305.5t-158.5 211t-228 75.5t-228.5 -75.5t-159 -211t-57.5 -305.5q0 -257 126 -422t319 -165z" />
<glyph unicode="&#xd7;" horiz-adv-x="1024" d="M258 313l-78 80l248 250l-233 234l79 81l236 -233l248 248l80 -80l-248 -248l248 -250l-82 -82l-248 250z" />
<glyph unicode="&#xd8;" horiz-adv-x="1425" d="M1042 1321q127 -95 199 -258.5t72 -368.5q0 -210 -76 -376t-213 -258.5t-311 -92.5q-148 0 -279 72l-80 -168l-100 49l88 186q-109 98 -169 250.5t-60 339.5q0 211 76 378t213 260t311 93q125 0 229 -49l68 144l106 -47zM268 696q0 -274 144 -444l469 997q-80 39 -168 39 q-127 0 -228.5 -75.5t-159 -211t-57.5 -305.5zM713 109q193 0 318.5 165t125.5 422q0 154 -47.5 280.5t-132.5 205.5l-479 -1008q95 -65 215 -65z" />
<glyph unicode="&#xd9;" horiz-adv-x="1351" d="M891 1485l-471 178l69 119l443 -228zM680 -33q-258 0 -387 140t-129 411v879h153v-879q0 -412 363 -412q164 0 259 106.5t95 305.5v879h154v-879q0 -266 -134.5 -408.5t-373.5 -142.5z" />
<glyph unicode="&#xda;" horiz-adv-x="1351" d="M461 1485l-41 69l442 228l70 -119zM680 -33q-258 0 -387 140t-129 411v879h153v-879q0 -412 363 -412q164 0 259 106.5t95 305.5v879h154v-879q0 -266 -134.5 -408.5t-373.5 -142.5z" />
<glyph unicode="&#xdb;" horiz-adv-x="1351" d="M395 1509l-39 70l318 213l319 -213l-39 -70l-280 138zM680 -33q-258 0 -387 140t-129 411v879h153v-879q0 -412 363 -412q164 0 259 106.5t95 305.5v879h154v-879q0 -266 -134.5 -408.5t-373.5 -142.5z" />
<glyph unicode="&#xdc;" horiz-adv-x="1351" d="M475 1554q-47 0 -78.5 32.5t-31.5 80.5q0 45 31.5 77t78.5 32q45 0 79 -32.5t34 -78.5q0 -44 -34.5 -77.5t-78.5 -33.5zM877 1554q-47 0 -80 33t-33 80q0 45 33 77t80 32q45 0 77.5 -32t32.5 -79q0 -44 -33 -77.5t-77 -33.5zM680 -33q-258 0 -387 140t-129 411v879h153 v-879q0 -412 363 -412q164 0 259 106.5t95 305.5v879h154v-879q0 -266 -134.5 -408.5t-373.5 -142.5z" />
<glyph unicode="&#xdd;" horiz-adv-x="991" d="M752 1663l-471 -178l-41 69l442 228zM881 1397h141l-453 -826v-571h-151v578l-449 819h154l381 -697z" />
<glyph unicode="&#xde;" horiz-adv-x="1077" d="M164 0v1397h153v-205h295q188 0 301 -109.5t113 -302.5q0 -191 -117.5 -300t-312.5 -109h-277v-371h-155zM319 498h273q138 0 209 71.5t71 210.5q0 140 -71 212.5t-209 72.5h-273v-567z" />
<glyph unicode="&#xdf;" horiz-adv-x="1089" d="M580 -10q-84 0 -183 24l29 136q86 -25 152 -25q130 0 199 84.5t69 241.5q0 85 -16.5 142.5t-56.5 100t-111 62.5t-177 20v127q295 0 295 250q0 110 -59 170.5t-166 60.5q-129 0 -190.5 -74.5t-61.5 -226.5v-1083h-139v1083q0 208 103 324.5t288 116.5q163 0 264 -102 t101 -269q0 -216 -215 -309q150 -29 225.5 -132t75.5 -261q0 -217 -114 -339t-312 -122z" />
<glyph unicode="&#xe0;" d="M770 1169l-41 -69l-410 178l70 119zM881 958h139v-958h-139v141q-59 -83 -145 -128.5t-189 -45.5q-209 0 -343 144t-134 370q0 224 133 367t340 143q105 0 192 -46t146 -130v143zM543 94q149 0 243.5 108t94.5 277t-94.5 277t-243.5 108q-146 0 -240 -107t-94 -276 q0 -170 94 -278.5t240 -108.5z" />
<glyph unicode="&#xe1;" d="M893 1278l-410 -178l-41 69l381 228zM881 958h139v-958h-139v141q-59 -83 -145 -128.5t-189 -45.5q-209 0 -343 144t-134 370q0 224 133 367t340 143q105 0 192 -46t146 -130v143zM543 94q149 0 243.5 108t94.5 277t-94.5 277t-243.5 108q-146 0 -240 -107t-94 -276 q0 -170 94 -278.5t240 -108.5z" />
<glyph unicode="&#xe2;" d="M573 1319l-237 -158l-39 70l276 254l279 -254l-39 -70zM881 958h139v-958h-139v141q-59 -83 -145 -128.5t-189 -45.5q-209 0 -343 144t-134 370q0 224 133 367t340 143q105 0 192 -46t146 -130v143zM543 94q149 0 243.5 108t94.5 277t-94.5 277t-243.5 108 q-146 0 -240 -107t-94 -276q0 -170 94 -278.5t240 -108.5z" />
<glyph unicode="&#xe3;" d="M434 1266q-54 0 -81 -32t-38 -99h-92q10 101 70.5 183.5t150.5 82.5q42 0 82.5 -21t68 -46.5t64 -46.5t70.5 -21q43 0 71 39t31 96h95q-6 -67 -30 -125t-73 -99.5t-114 -41.5q-44 0 -81 20.5t-59.5 45t-58 45t-76.5 20.5zM881 958h139v-958h-139v141q-59 -83 -145 -128.5 t-189 -45.5q-209 0 -343 144t-134 370q0 224 133 367t340 143q105 0 192 -46t146 -130v143zM543 94q149 0 243.5 108t94.5 277t-94.5 277t-243.5 108q-146 0 -240 -107t-94 -276q0 -170 94 -278.5t240 -108.5z" />
<glyph unicode="&#xe4;" d="M375 1145q-47 0 -79 32.5t-32 79.5q0 45 32 77t79 32q45 0 78.5 -32.5t33.5 -78.5q0 -44 -34 -77t-78 -33zM776 1145q-47 0 -79.5 32.5t-32.5 79.5q0 45 32.5 77t79.5 32q45 0 78 -32t33 -79q0 -44 -33.5 -77t-77.5 -33zM881 958h139v-958h-139v141q-59 -83 -145 -128.5 t-189 -45.5q-209 0 -343 144t-134 370q0 224 133 367t340 143q105 0 192 -46t146 -130v143zM543 94q149 0 243.5 108t94.5 277t-94.5 277t-243.5 108q-146 0 -240 -107t-94 -276q0 -170 94 -278.5t240 -108.5z" />
<glyph unicode="&#xe5;" d="M573 1147q-85 0 -143.5 59t-58.5 144t58.5 144.5t143.5 59.5t145 -59.5t60 -144.5t-60 -144t-145 -59zM575 1452q-43 0 -72.5 -29.5t-29.5 -70.5q0 -43 30 -74t72 -31q41 0 71 31t30 72q0 42 -30 72t-71 30zM881 958h139v-958h-139v141q-59 -83 -145 -128.5t-189 -45.5 q-209 0 -343 144t-134 370q0 224 133 367t340 143q105 0 192 -46t146 -130v143zM543 94q149 0 243.5 108t94.5 277t-94.5 277t-243.5 108q-146 0 -240 -107t-94 -276q0 -170 94 -278.5t240 -108.5z" />
<glyph unicode="&#xe6;" horiz-adv-x="1794" d="M1262 991q225 0 352 -149t102 -391h-788q4 -70 27 -133t63.5 -113.5t104 -80.5t141.5 -30q229 0 333 174l111 -73q-147 -228 -440 -228q-210 0 -348 148q-101 -77 -197 -112.5t-219 -35.5q-175 0 -283 79t-108 226q0 101 64 175.5t165 110.5t223 36q56 0 95.5 -5 t60 -10.5t67.5 -21.5q-29 313 -290 313q-154 0 -256 -125l-101 72q136 172 361 172q142 0 233 -58.5t125 -164.5q62 106 167 165.5t235 59.5zM936 565h643q-40 299 -317 299q-134 0 -218.5 -85t-107.5 -214zM522 94q174 0 332 111q-60 114 -66 244q-110 22 -202 22 q-142 0 -231 -49t-89 -143q0 -185 256 -185z" />
<glyph unicode="&#xe7;" horiz-adv-x="976" d="M926 152q-64 -80 -156 -129.5t-199 -55.5l-51 -106q104 0 161.5 -35t57.5 -82q0 -154 -420 -154v56q103 0 195 24q92 21 92 62q0 22 -15 33.5t-63 17.5t-143 6l86 184q-182 25 -293.5 163.5t-111.5 342.5q0 225 133 368.5t342 143.5q117 0 203.5 -50t158.5 -142l-102 -80 q-99 145 -260 145q-148 0 -242 -108t-94 -277t94 -277t242 -108q99 0 162 34t114 99z" />
<glyph unicode="&#xe8;" horiz-adv-x="1075" d="M733 1169l-41 -69l-409 178l69 119zM543 991q138 0 247.5 -71t165.5 -195.5t41 -273.5h-788q4 -70 27 -133t63.5 -113.5t104 -80.5t141.5 -30q230 0 334 174l110 -73q-147 -228 -440 -228q-211 0 -345 144t-134 368t133 368t340 144zM217 565h643q-40 299 -317 299 q-134 0 -218.5 -85t-107.5 -214z" />
<glyph unicode="&#xe9;" horiz-adv-x="1075" d="M856 1278l-410 -178l-40 69l380 228zM543 991q138 0 247.5 -71t165.5 -195.5t41 -273.5h-788q4 -70 27 -133t63.5 -113.5t104 -80.5t141.5 -30q230 0 334 174l110 -73q-147 -228 -440 -228q-211 0 -345 144t-134 368t133 368t340 144zM217 565h643q-40 299 -317 299 q-134 0 -218.5 -85t-107.5 -214z" />
<glyph unicode="&#xea;" horiz-adv-x="1075" d="M537 1319l-238 -158l-39 70l277 254l278 -254l-39 -70zM543 991q138 0 247.5 -71t165.5 -195.5t41 -273.5h-788q4 -70 27 -133t63.5 -113.5t104 -80.5t141.5 -30q230 0 334 174l110 -73q-147 -228 -440 -228q-211 0 -345 144t-134 368t133 368t340 144zM217 565h643 q-40 299 -317 299q-134 0 -218.5 -85t-107.5 -214z" />
<glyph unicode="&#xeb;" horiz-adv-x="1075" d="M338 1145q-47 0 -79 32.5t-32 79.5q0 45 32 77t79 32q45 0 79 -32.5t34 -78.5q0 -44 -34 -77t-79 -33zM739 1145q-47 0 -79.5 32.5t-32.5 79.5q0 45 32.5 77t79.5 32q45 0 78 -32t33 -79q0 -44 -33.5 -77t-77.5 -33zM543 991q138 0 247.5 -71t165.5 -195.5t41 -273.5 h-788q4 -70 27 -133t63.5 -113.5t104 -80.5t141.5 -30q230 0 334 174l110 -73q-147 -228 -440 -228q-211 0 -345 144t-134 368t133 368t340 144zM217 565h643q-40 299 -317 299q-134 0 -218.5 -85t-107.5 -214z" />
<glyph unicode="&#xec;" horiz-adv-x="548" d="M258 1081l-256 289l94 82l236 -307zM205 0v958h139v-958h-139z" />
<glyph unicode="&#xed;" horiz-adv-x="548" d="M254 1081l-74 64l236 307l94 -82zM205 0v958h139v-958h-139z" />
<glyph unicode="&#xee;" horiz-adv-x="548" d="M274 1475l236 -254l-74 -60l-160 148l-170 -148l-69 60zM205 0v958h139v-958h-139z" />
<glyph unicode="&#xef;" horiz-adv-x="548" d="M115 1155q-43 0 -72 29.5t-29 72.5q0 40 29.5 69.5t71.5 29.5q41 0 71.5 -29.5t30.5 -71.5q0 -40 -31 -70t-71 -30zM434 1155q-43 0 -72.5 29.5t-29.5 72.5q0 40 30 69.5t72 29.5q40 0 70.5 -29.5t30.5 -71.5q0 -40 -30.5 -70t-70.5 -30zM205 0v958h139v-958h-139z" />
<glyph unicode="&#xf0;" horiz-adv-x="1087" d="M1020 467v-25q-12 -210 -143 -342.5t-330 -132.5q-209 0 -343 144t-134 370q0 224 133 367t340 143q92 0 179.5 -49.5t143.5 -138.5q-27 174 -96.5 287t-181.5 186l-115 -129l-65 61l102 113q-74 39 -178 72l51 100q117 -42 203 -88l110 123l64 -60l-96 -108 q185 -121 268.5 -324t87.5 -557v-12zM543 94q149 0 243.5 108t94.5 277t-94.5 277t-243.5 108q-146 0 -240 -107t-94 -276q0 -170 94 -278.5t240 -108.5z" />
<glyph unicode="&#xf1;" horiz-adv-x="1099" d="M430 1266q-54 0 -81 -32t-38 -99h-92q10 101 70.5 183.5t150.5 82.5q42 0 82.5 -21t68 -46.5t64 -46.5t70.5 -21q43 0 71 39t31 96h95q-6 -67 -30 -125t-73 -99.5t-114 -41.5q-44 0 -81 20.5t-59.5 45t-58 45t-76.5 20.5zM586 991q156 0 263 -94t107 -256v-641h-139v580 q0 284 -254 284q-147 0 -221 -104.5t-74 -280.5v-479h-139v958h139v-159q105 192 318 192z" />
<glyph unicode="&#xf2;" horiz-adv-x="1087" d="M698 1100l-409 178l69 119l381 -228zM547 -33q-208 0 -342.5 144.5t-134.5 369.5q0 224 133 367t340 143q209 0 343 -144t134 -368t-133 -368t-340 -144zM543 94q149 0 243.5 108t94.5 277t-94.5 277t-243.5 108q-146 0 -240 -107t-94 -276q0 -170 94 -278.5t240 -108.5z " />
<glyph unicode="&#xf3;" horiz-adv-x="1087" d="M453 1100l-41 69l381 228l69 -119zM547 -33q-208 0 -342.5 144.5t-134.5 369.5q0 224 133 367t340 143q209 0 343 -144t134 -368t-133 -368t-340 -144zM543 94q149 0 243.5 108t94.5 277t-94.5 277t-243.5 108q-146 0 -240 -107t-94 -276q0 -170 94 -278.5t240 -108.5z " />
<glyph unicode="&#xf4;" horiz-adv-x="1087" d="M305 1161l-39 70l277 254l278 -254l-39 -70l-239 158zM547 -33q-208 0 -342.5 144.5t-134.5 369.5q0 224 133 367t340 143q209 0 343 -144t134 -368t-133 -368t-340 -144zM543 94q149 0 243.5 108t94.5 277t-94.5 277t-243.5 108q-146 0 -240 -107t-94 -276 q0 -170 94 -278.5t240 -108.5z" />
<glyph unicode="&#xf5;" horiz-adv-x="1087" d="M193 1135q10 101 70.5 183.5t150.5 82.5q42 0 82.5 -21t67.5 -46.5t63.5 -46.5t70.5 -21q43 0 71.5 39t31.5 96h94q-6 -67 -30 -125t-73 -99.5t-114 -41.5q-44 0 -81 20.5t-59.5 45t-58 45t-76.5 20.5q-54 0 -80.5 -32t-37.5 -99h-92zM547 -33q-208 0 -342.5 144.5 t-134.5 369.5q0 224 133 367t340 143q209 0 343 -144t134 -368t-133 -368t-340 -144zM543 94q149 0 243.5 108t94.5 277t-94.5 277t-243.5 108q-146 0 -240 -107t-94 -276q0 -170 94 -278.5t240 -108.5z" />
<glyph unicode="&#xf6;" horiz-adv-x="1087" d="M344 1145q-47 0 -79 32.5t-32 79.5q0 45 32 77t79 32q45 0 79 -32.5t34 -78.5q0 -44 -34 -77t-79 -33zM745 1145q-47 0 -79.5 32.5t-32.5 79.5q0 45 32.5 77t79.5 32q45 0 78 -32t33 -79q0 -44 -33.5 -77t-77.5 -33zM547 -33q-208 0 -342.5 144.5t-134.5 369.5 q0 224 133 367t340 143q209 0 343 -144t134 -368t-133 -368t-340 -144zM543 94q149 0 243.5 108t94.5 277t-94.5 277t-243.5 108q-146 0 -240 -107t-94 -276q0 -170 94 -278.5t240 -108.5z" />
<glyph unicode="&#xf7;" horiz-adv-x="1024" d="M512 825q-44 0 -77.5 34.5t-33.5 78.5t33.5 77.5t77.5 33.5q47 0 79 -33t32 -78t-32.5 -79t-78.5 -34zM102 580v112h820v-112h-820zM512 188q-45 0 -78 33t-33 80q0 44 33.5 77.5t77.5 33.5q47 0 79 -33t32 -80q0 -45 -32 -78t-79 -33z" />
<glyph unicode="&#xf8;" horiz-adv-x="1087" d="M813 911q97 -67 152 -180t55 -252q0 -224 -133 -368t-340 -144q-78 0 -164 27l-57 -121l-105 47l60 127q-99 67 -155 180t-56 254q0 224 133 367t340 143q87 0 166 -28l84 180l106 -47zM209 481q0 -203 129 -313l315 678q-49 18 -110 18q-146 0 -240 -107t-94 -276z M543 94q149 0 243.5 108t94.5 277q0 198 -127 309l-316 -677q56 -17 105 -17z" />
<glyph unicode="&#xf9;" horiz-adv-x="1099" d="M745 1169l-40 -69l-410 178l70 119zM831 958h140v-958h-140v160q-50 -93 -131 -143t-186 -50q-157 0 -264 94t-107 256v641h140v-579q0 -285 254 -285q147 0 220.5 104t73.5 281v479z" />
<glyph unicode="&#xfa;" horiz-adv-x="1099" d="M868 1278l-409 -178l-41 69l381 228zM831 958h140v-958h-140v160q-50 -93 -131 -143t-186 -50q-157 0 -264 94t-107 256v641h140v-579q0 -285 254 -285q147 0 220.5 104t73.5 281v479z" />
<glyph unicode="&#xfb;" horiz-adv-x="1099" d="M549 1319l-238 -158l-39 70l277 254l278 -254l-39 -70zM831 958h140v-958h-140v160q-50 -93 -131 -143t-186 -50q-157 0 -264 94t-107 256v641h140v-579q0 -285 254 -285q147 0 220.5 104t73.5 281v479z" />
<glyph unicode="&#xfc;" horiz-adv-x="1099" d="M350 1145q-47 0 -78.5 32.5t-31.5 79.5q0 45 31.5 77t78.5 32q45 0 79 -32.5t34 -78.5q0 -44 -34 -77t-79 -33zM752 1145q-47 0 -80 32.5t-33 79.5q0 45 33 77t80 32q45 0 77.5 -32t32.5 -79q0 -44 -33 -77t-77 -33zM831 958h140v-958h-140v160q-50 -93 -131 -143 t-186 -50q-157 0 -264 94t-107 256v641h140v-579q0 -285 254 -285q147 0 220.5 104t73.5 281v479z" />
<glyph unicode="&#xfd;" horiz-adv-x="919" d="M778 1278l-409 -178l-41 69l381 228zM788 958h132l-519 -1368h-139l152 392l-394 976h146l317 -794z" />
<glyph unicode="&#xfe;" horiz-adv-x="1157" d="M612 991q209 0 343.5 -144t134.5 -370q0 -224 -133.5 -367t-340.5 -143q-105 0 -191.5 46t-145.5 130v-553h-140v1807h140v-580q59 83 144.5 128.5t188.5 45.5zM616 94q146 0 240 107t94 276q0 170 -94 278.5t-240 108.5q-149 0 -243 -108t-94 -277t94 -277t243 -108z " />
<glyph unicode="&#xff;" horiz-adv-x="919" d="M260 1145q-47 0 -78.5 32.5t-31.5 79.5q0 45 31.5 77t78.5 32q45 0 79 -32.5t34 -78.5q0 -44 -34 -77t-79 -33zM662 1145q-47 0 -80 32.5t-33 79.5q0 45 33 77t80 32q45 0 77.5 -32t32.5 -79q0 -44 -33 -77t-77 -33zM788 958h132l-519 -1368h-139l152 392l-394 976h146 l317 -794z" />
<glyph unicode="&#x152;" horiz-adv-x="1699" d="M1620 127v-127h-715q-85 -33 -192 -33q-174 0 -311 92.5t-213 259t-76 377.5t76 378t213 260t311 93q101 0 186 -30h715v-129h-629v-488h492v-125h-492v-528h635zM274 696q0 -258 123.5 -422.5t315.5 -164.5q63 0 118 18v1143q-55 18 -118 18q-192 0 -315.5 -166.5 t-123.5 -425.5z" />
<glyph unicode="&#x153;" horiz-adv-x="1886" d="M1354 991q138 0 247.5 -71t165.5 -195.5t41 -273.5h-788q4 -70 27 -133t63.5 -113.5t104 -80.5t141.5 -30q230 0 334 174l110 -73q-147 -228 -440 -228q-133 0 -240.5 61.5t-169.5 170.5q-61 -109 -166 -170.5t-237 -61.5q-209 0 -343 144t-134 370q0 224 133 367 t340 143q133 0 239 -61t168 -170q61 108 166.5 169.5t237.5 61.5zM543 94q149 0 243.5 108t94.5 277t-94.5 277t-243.5 108q-146 0 -240 -107t-94 -276q0 -170 94 -278.5t240 -108.5zM1028 565h643q-40 299 -317 299q-134 0 -218.5 -85t-107.5 -214z" />
<glyph unicode="&#x178;" horiz-adv-x="991" d="M295 1554q-47 0 -79 33t-32 80q0 45 32 77t79 32q45 0 79 -32.5t34 -78.5q0 -44 -34.5 -77.5t-78.5 -33.5zM696 1554q-47 0 -79.5 33t-32.5 80q0 45 32.5 77t79.5 32q45 0 78 -32t33 -79q0 -44 -33.5 -77.5t-77.5 -33.5zM881 1397h141l-453 -826v-571h-151v578l-449 819 h154l381 -697z" />
<glyph unicode="&#x2c6;" horiz-adv-x="837" d="M160 1161l-39 70l276 254l279 -254l-39 -70l-240 158z" />
<glyph unicode="&#x2dc;" horiz-adv-x="985" d="M121 1161q9 96 78 180q68 86 153 86q67 0 135 -65q70 -64 105 -64q52 0 91.5 39.5t45.5 89.5h94q-12 -96 -80 -182q-66 -84 -151 -84q-65 0 -137 66q-71 65 -103 65q-52 0 -92.5 -40t-46.5 -91h-92z" />
<glyph unicode="&#x2000;" horiz-adv-x="961" />
<glyph unicode="&#x2001;" horiz-adv-x="1923" />
<glyph unicode="&#x2002;" horiz-adv-x="961" />
<glyph unicode="&#x2003;" horiz-adv-x="1923" />
<glyph unicode="&#x2004;" horiz-adv-x="641" />
<glyph unicode="&#x2005;" horiz-adv-x="480" />
<glyph unicode="&#x2006;" horiz-adv-x="320" />
<glyph unicode="&#x2007;" horiz-adv-x="320" />
<glyph unicode="&#x2008;" horiz-adv-x="240" />
<glyph unicode="&#x2009;" horiz-adv-x="384" />
<glyph unicode="&#x200a;" horiz-adv-x="106" />
<glyph unicode="&#x2010;" horiz-adv-x="696" d="M117 446v115h465v-115h-465z" />
<glyph unicode="&#x2011;" horiz-adv-x="696" d="M117 446v115h465v-115h-465z" />
<glyph unicode="&#x2012;" horiz-adv-x="696" d="M117 446v115h465v-115h-465z" />
<glyph unicode="&#x2013;" horiz-adv-x="1079" d="M115 436v113h852v-113h-852z" />
<glyph unicode="&#x2014;" horiz-adv-x="1480" d="M115 436v113h1251v-113h-1251z" />
<glyph unicode="&#x2018;" horiz-adv-x="385" d="M197 1147q-46 0 -78.5 33t-32.5 84q0 93 53 187.5t133 147.5l33 -20q-81 -78 -108 -211q45 0 77.5 -33t32.5 -78q0 -47 -31.5 -78.5t-78.5 -31.5z" />
<glyph unicode="&#x2019;" horiz-adv-x="344" d="M117 1141l-35 20q79 79 108 211q-47 0 -78.5 32.5t-31.5 80.5q0 44 32 77t76 33q49 0 81 -30.5t32 -81.5q0 -107 -50.5 -203.5t-133.5 -138.5z" />
<glyph unicode="&#x201a;" horiz-adv-x="417" d="M135 -248l-35 21q79 79 109 211q-47 0 -79 32.5t-32 79.5q0 44 32.5 77.5t76.5 33.5q47 0 79.5 -39t32.5 -92q0 -87 -52.5 -179.5t-131.5 -144.5z" />
<glyph unicode="&#x201c;" horiz-adv-x="706" d="M197 1147q-45 0 -78 32t-33 76q0 109 54 207t132 137l33 -20q-82 -79 -106 -211q44 0 76 -33t32 -78q0 -47 -31.5 -78.5t-78.5 -31.5zM516 1147q-45 0 -79 32t-34 76q0 106 52 204t135 140l33 -20q-79 -79 -109 -211q45 0 78 -33t33 -78q0 -47 -32 -78.5t-77 -31.5z" />
<glyph unicode="&#x201d;" horiz-adv-x="700" d="M117 1141l-35 20q79 79 108 211q-47 0 -78.5 32.5t-31.5 80.5q0 44 32 77t76 33q47 0 80 -32.5t33 -77.5q0 -112 -49.5 -203t-134.5 -141zM434 1141l-35 20q80 80 109 211q-45 0 -78 33t-33 80q0 44 33.5 77t77.5 33q47 0 78.5 -32.5t31.5 -77.5q0 -112 -49.5 -204.5 t-134.5 -139.5z" />
<glyph unicode="&#x201e;" horiz-adv-x="817" d="M135 -248l-35 21q79 79 109 211q-47 0 -79 32.5t-32 79.5q0 44 32.5 77.5t76.5 33.5q47 0 79.5 -33t32.5 -78q2 -109 -46.5 -200.5t-137.5 -143.5zM535 -248l-35 21q78 78 108 211q-47 0 -78.5 32.5t-31.5 79.5q0 45 32 78t76 33q47 0 80 -33t33 -78q0 -80 -17.5 -133.5 t-53.5 -98t-113 -112.5z" />
<glyph unicode="&#x2022;" horiz-adv-x="673" d="M338 240q-100 0 -173 72.5t-73 176.5q0 98 74 172t172 74q105 0 174.5 -72.5t69.5 -177.5q0 -101 -70 -173t-174 -72z" />
<glyph unicode="&#x2026;" horiz-adv-x="1214" d="M207 -16q-45 0 -77 32.5t-32 79.5q0 44 32.5 77.5t76.5 33.5q47 0 79.5 -33t32.5 -80q0 -45 -32.5 -77.5t-79.5 -32.5zM606 -16q-45 0 -76.5 32.5t-31.5 79.5q0 45 32 78t76 33q47 0 80 -33t33 -80q0 -45 -33 -77.5t-80 -32.5zM1006 -16q-45 0 -77 32.5t-32 79.5 q0 44 32.5 77.5t76.5 33.5q47 0 79.5 -33t32.5 -80q0 -45 -32.5 -77.5t-79.5 -32.5z" />
<glyph unicode="&#x202f;" horiz-adv-x="384" />
<glyph unicode="&#x2039;" horiz-adv-x="684" d="M561 854l-291 -303l291 -307l-88 -76l-391 381l391 383z" />
<glyph unicode="&#x203a;" horiz-adv-x="684" d="M211 932l391 -383l-391 -381l-88 76l291 307l-291 303z" />
<glyph unicode="&#x205f;" horiz-adv-x="480" />
<glyph unicode="&#x20ac;" horiz-adv-x="1280" d="M1079 373l129 -78q-152 -328 -485 -328q-224 0 -369 138.5t-186 390.5h-148l35 110h101q-2 29 -2 88q0 46 2 66h-136l35 110h109q37 264 178.5 410.5t362.5 146.5q173 0 297.5 -76t193.5 -216l-123 -72q-66 121 -153.5 173t-214.5 52q-152 0 -250 -109t-127 -309h489 l-35 -110h-465q-2 -20 -2 -64q0 -32 4 -90h416l-35 -110h-368q35 -185 132 -287.5t238 -102.5q76 0 134.5 18t102.5 56t75 82t65 111z" />
<glyph unicode="&#x2122;" horiz-adv-x="1204" d="M98 1395v92h369v-92h-135v-422h-101v422h-133zM938 1487h98v-514h-102v307l-117 -307h-47l-117 307v-307h-100v514h98l144 -367z" />
<glyph unicode="&#x25fc;" horiz-adv-x="962" d="M0 963h963v-963h-963v963z" />
<glyph unicode="&#xfb03;" horiz-adv-x="1599" d="M1395 958v-958h-140v831h-372v-831h-140v831h-424v-831h-139v831h-123v127h123v261q0 133 85 218t218 85h58v-127h-58q-72 0 -118 -49.5t-46 -126.5v-261h424v261q0 133 85 218t219 85h57v-127h-57q-72 0 -118 -49.5t-46 -126.5v-261h512zM1325 1366q45 0 78 -32t33 -79 q0 -44 -33.5 -77t-77.5 -33q-47 0 -79 32.5t-32 79.5q0 45 32 77t79 32z" />
<glyph unicode="&#xfb04;" horiz-adv-x="1542" d="M180 0v831h-123v127h123v261q0 133 85 218t218 85h58v-127h-58q-72 0 -118 -49.5t-46 -126.5v-261h424v261q0 134 96 218.5t248 84.5q124 0 318 -35v-1487h-139v1384q-96 13 -179 13q-90 0 -147 -50.5t-57 -127.5v-261h221v-127h-221v-831h-140v831h-424v-831h-139z" />
</font>
</defs>
</svg>
